<svg width="24" height="24" viewBox="0 0 24 24" fill="none" xmlns="http://www.w3.org/2000/svg">
<path d="M12 15C8.68629 15 6 16.7909 6 19M12 12C9.79086 12 8 10.2091 8 8C8 5.79086 9.79086 4 12 4C14.2091 4 16 5.79086 16 8C16 10.2091 14.2091 12 12 12Z" stroke="#202020" stroke-width="1.5" stroke-linecap="round" stroke-linejoin="round"/>
<g clip-path="url(#clip0_1006_4450)">
<path d="M22.175 16.4615L21.9919 16.3596C21.9634 16.3438 21.9494 16.3358 21.9357 16.3276C21.7992 16.2458 21.6841 16.1328 21.6001 15.9976C21.5916 15.984 21.5837 15.9697 21.5674 15.9415C21.5511 15.9134 21.5429 15.8991 21.5353 15.885C21.46 15.7443 21.4192 15.5876 21.4168 15.428C21.4166 15.412 21.4166 15.3956 21.4172 15.363L21.4207 15.1504C21.4265 14.8101 21.4293 14.6395 21.3815 14.4863C21.339 14.3503 21.268 14.225 21.1731 14.1186C21.0658 13.9984 20.9174 13.9127 20.6201 13.7414L20.3732 13.5991C20.0768 13.4283 19.9285 13.3429 19.7712 13.3103C19.6319 13.2815 19.4883 13.2828 19.3495 13.3139C19.193 13.3491 19.0466 13.4368 18.7539 13.612L18.7523 13.6128L18.5754 13.7187C18.5474 13.7355 18.5332 13.7439 18.5192 13.7517C18.3801 13.8291 18.2247 13.8718 18.0656 13.8769C18.0496 13.8774 18.0333 13.8774 18.0007 13.8774C17.9682 13.8774 17.9512 13.8774 17.9352 13.8769C17.7758 13.8718 17.6201 13.8288 17.4808 13.7511C17.4667 13.7433 17.4528 13.7348 17.4248 13.718L17.2467 13.6111C16.9521 13.4342 16.8046 13.3456 16.6471 13.3103C16.5079 13.279 16.3637 13.2782 16.224 13.3074C16.0662 13.3403 15.9179 13.4264 15.6213 13.5985L15.62 13.5991L15.3761 13.7406L15.3734 13.7423C15.0795 13.9129 14.9322 13.9984 14.8258 14.1181C14.7315 14.2243 14.6609 14.3494 14.6187 14.4851C14.571 14.6385 14.5735 14.8095 14.5793 15.1513L14.5828 15.3637C14.5834 15.3958 14.5843 15.4118 14.5841 15.4276C14.5817 15.5875 14.5404 15.7446 14.4649 15.8855C14.4574 15.8994 14.4493 15.9134 14.4333 15.9412C14.4172 15.969 14.4094 15.9829 14.401 15.9963C14.3167 16.1323 14.2011 16.2459 14.0637 16.3279C14.0501 16.336 14.0358 16.3438 14.0076 16.3594L13.8268 16.4595C13.526 16.6262 13.3757 16.7096 13.2663 16.8283C13.1695 16.9334 13.0964 17.0579 13.0517 17.1936C13.0013 17.3469 13.0013 17.5189 13.0021 17.8628L13.0028 18.1438C13.0035 18.4854 13.0046 18.6561 13.0552 18.8084C13.0999 18.9432 13.1725 19.067 13.2687 19.1714C13.3775 19.2894 13.5264 19.3723 13.8249 19.5383L14.004 19.638C14.0345 19.6549 14.0499 19.6633 14.0646 19.6722C14.2007 19.7542 14.3154 19.8675 14.3991 20.0027C14.4081 20.0173 14.4168 20.0324 14.4341 20.0627C14.4513 20.0927 14.46 20.1076 14.468 20.1226C14.5413 20.2615 14.5806 20.4157 14.5832 20.5727C14.5835 20.5897 14.5833 20.6069 14.5827 20.6413L14.5793 20.8451C14.5735 21.1881 14.571 21.3599 14.619 21.5136C14.6614 21.6497 14.7324 21.775 14.8273 21.8813C14.9346 22.0015 15.0833 22.0872 15.3805 22.2585L15.6274 22.4008C15.9238 22.5716 16.072 22.6569 16.2293 22.6895C16.3686 22.7183 16.5123 22.7172 16.651 22.686C16.8078 22.6508 16.9547 22.5629 17.2482 22.3872L17.4251 22.2812C17.4531 22.2645 17.4673 22.2561 17.4813 22.2483C17.6204 22.1709 17.7756 22.1279 17.9347 22.1228C17.9508 22.1223 17.9671 22.1223 17.9997 22.1223C18.0324 22.1223 18.0487 22.1223 18.0648 22.1228C18.2242 22.1279 18.3803 22.1711 18.5197 22.2488C18.532 22.2556 18.5442 22.263 18.5658 22.2759L18.7539 22.3888C19.0486 22.5658 19.1958 22.6541 19.3532 22.6894C19.4925 22.7206 19.6368 22.7219 19.7765 22.6927C19.9343 22.6598 20.0829 22.5735 20.3793 22.4015L20.6268 22.2579C20.9209 22.0872 21.0684 22.0016 21.1748 21.8818C21.2691 21.7756 21.3398 21.6505 21.382 21.5149C21.4294 21.3626 21.4265 21.1929 21.4209 20.856L21.4172 20.6362C21.4166 20.6041 21.4166 20.5881 21.4168 20.5722C21.4192 20.4124 21.4598 20.2552 21.5353 20.1143C21.5428 20.1004 21.5509 20.0863 21.5669 20.0586C21.583 20.0307 21.5913 20.0168 21.5997 20.0034C21.684 19.8675 21.7998 19.7537 21.9372 19.6718C21.9506 19.6638 21.9644 19.6561 21.9919 19.6409L21.9928 19.6404L22.1736 19.5403C22.4744 19.3736 22.6251 19.2901 22.7345 19.1714C22.8312 19.0664 22.9043 18.942 22.9489 18.8063C22.9991 18.6539 22.9987 18.4829 22.9979 18.143L22.9972 17.8559C22.9965 17.5144 22.996 17.3437 22.9455 17.1914C22.9007 17.0566 22.8278 16.9328 22.7315 16.8284C22.6228 16.7106 22.4738 16.6276 22.1758 16.4619L22.175 16.4615Z" stroke="#202020" stroke-width="1.5" stroke-linecap="round" stroke-linejoin="round"/>
<path d="M16.0002 18C16.0002 19.1046 16.8956 20 18.0002 20C19.1047 20 20.0002 19.1046 20.0002 18C20.0002 16.8954 19.1047 16 18.0002 16C16.8956 16 16.0002 16.8954 16.0002 18Z" stroke="#202020" stroke-width="1.5" stroke-linecap="round" stroke-linejoin="round"/>
</g>
<defs>
<clipPath id="clip0_1006_4450">
<rect width="12" height="12" fill="white" transform="translate(12 12)"/>
</clipPath>
</defs>
</svg>
