<svg width="40" height="40" viewBox="0 0 40 40" fill="none" xmlns="http://www.w3.org/2000/svg">
<path d="M16 16.0038H14.7773C13.4777 16.0038 12.8284 16.0038 12.3662 16.2689C11.9606 16.5016 11.6488 16.8691 11.486 17.3075C11.3005 17.8067 11.4073 18.4471 11.6206 19.7275L11.6211 19.7299L12.5544 25.3299C12.7128 26.2798 12.7924 26.755 13.0295 27.1114C13.2384 27.4256 13.5317 27.674 13.876 27.8285C14.2665 28.0037 14.7479 28.0038 15.7109 28.0038H24.2893C25.2524 28.0038 25.7334 28.0037 26.124 27.8285C26.4682 27.674 26.7618 27.4256 26.9707 27.1114C27.2077 26.755 27.287 26.2798 27.4453 25.3299L28.3786 19.7299L28.3796 19.726C28.5928 18.4466 28.6995 17.8065 28.5141 17.3075C28.3513 16.8691 28.0402 16.5016 27.6346 16.2689C27.1724 16.0038 26.522 16.0038 25.2224 16.0038H24M16 16.0038H24M16 16.0038C16 13.7946 17.7909 12.0038 20 12.0038C22.2091 12.0038 24 13.7946 24 16.0038" stroke="#FDFDFD" stroke-width="1.5" stroke-linecap="round" stroke-linejoin="round"/>
</svg>
