<svg width="25" height="24" viewBox="0 0 25 24" fill="none" xmlns="http://www.w3.org/2000/svg">
<path d="M20.5 5.6001C20.5 5.04005 20.4996 4.75981 20.3906 4.5459C20.2948 4.35774 20.1423 4.20487 19.9542 4.10899C19.7403 4 19.4597 4 18.8996 4H6.09961C5.53956 4 5.25981 4 5.0459 4.10899C4.85774 4.20487 4.70487 4.35774 4.60899 4.5459C4.5 4.75981 4.5 5.04005 4.5 5.6001V6.33736C4.5 6.58195 4.5 6.70433 4.52763 6.81942C4.55213 6.92146 4.59263 7.01893 4.64746 7.1084C4.70928 7.20928 4.79591 7.29591 4.96875 7.46875L10.0315 12.5315C10.2044 12.7044 10.2904 12.7904 10.3523 12.8914C10.4071 12.9808 10.4482 13.0786 10.4727 13.1807C10.5 13.2946 10.5 13.4155 10.5 13.6552V18.411C10.5 19.2682 10.5 19.6971 10.6805 19.9552C10.8382 20.1806 11.0814 20.331 11.3535 20.3712C11.6651 20.4172 12.0487 20.2257 12.8154 19.8424L13.6154 19.4424C13.9365 19.2819 14.0966 19.2013 14.2139 19.0815C14.3176 18.9756 14.397 18.8485 14.4453 18.7084C14.5 18.5499 14.5 18.37 14.5 18.011V13.6626C14.5 13.418 14.5 13.2958 14.5276 13.1807C14.5521 13.0786 14.5926 12.9808 14.6475 12.8914C14.7089 12.7911 14.7947 12.7053 14.9653 12.5347L14.9688 12.5315L20.0315 7.46875C20.2044 7.2958 20.2904 7.20932 20.3523 7.1084C20.4071 7.01893 20.4482 6.92146 20.4727 6.81942C20.5 6.70551 20.5 6.58444 20.5 6.3448V5.6001Z" stroke="#202020" stroke-width="1.5" stroke-linecap="round" stroke-linejoin="round"/>
</svg>
