<svg width="24" height="25" viewBox="0 0 24 25" fill="none" xmlns="http://www.w3.org/2000/svg">
<path d="M8.68772 8.46979H7.68723C6.62376 8.46979 6.09246 8.46979 5.71421 8.69979C5.38228 8.90162 5.13832 9.07781 5.00509 9.45806C4.99382 10.1829 5.00474 18.5663 5.00509 19H19C19 18.5625 18.9162 10.1844 18.9162 9.45806C18.783 9.07781 18.5402 8.90162 18.2082 8.69979C17.83 8.46979 17.2978 8.46979 16.2344 8.46979H15.2341M8.68772 8.46979H15.2341M8.68772 8.46979C8.68772 6.55348 10.1532 5 11.9609 5C13.7686 5 15.2341 6.55348 15.2341 8.46979" stroke="#202020" stroke-width="1.5" stroke-linecap="round" stroke-linejoin="round"/>
</svg>
