<svg width="32" height="25" viewBox="0 0 32 25" fill="none" xmlns="http://www.w3.org/2000/svg">
<path d="M24.2017 0C25.5761 0 26.7414 0.298788 27.6975 0.896363C28.7134 1.43418 29.55 2.15126 30.2073 3.04762C30.8646 4.00374 31.3128 5.10925 31.5518 6.36415C31.8506 7.61905 32 8.84407 32 10.0392C32 12.9673 31.2232 15.6863 29.6695 18.1961C28.1755 20.7059 25.845 22.7078 22.6779 24.2017L21.8711 22.5882C23.6041 21.8114 25.098 20.676 26.3529 19.1821C27.6676 17.6284 28.4146 16.0149 28.5938 14.3417C28.8329 13.2661 28.8329 12.2502 28.5938 11.2941C27.3987 12.4893 25.845 13.0868 23.9328 13.0868C22.0803 13.0868 20.5266 12.5191 19.2717 11.3838C18.0168 10.2484 17.3894 8.63492 17.3894 6.54342C17.3894 4.63119 18.0168 3.0775 19.2717 1.88236C20.5864 0.627452 22.2297 0 24.2017 0ZM6.81233 0C8.18674 0 9.35201 0.298788 10.3081 0.896363C11.324 1.43418 12.1606 2.15126 12.8179 3.04762C13.4753 4.00374 13.9234 5.10925 14.1625 6.36415C14.4613 7.61905 14.6106 8.84407 14.6106 10.0392C14.6106 12.9673 13.8338 15.6863 12.2801 18.1961C10.7862 20.7059 8.45565 22.7078 5.28852 24.2017L4.48179 22.5882C6.21475 21.8114 7.70868 20.676 8.96359 19.1821C10.2782 17.6284 11.0252 16.0149 11.2045 14.3417C11.4435 13.2661 11.4435 12.2502 11.2045 11.2941C10.0093 12.4893 8.45565 13.0868 6.54342 13.0868C4.69094 13.0868 3.13726 12.5191 1.88235 11.3838C0.627451 10.2484 0 8.63492 0 6.54342C0 4.63119 0.627451 3.0775 1.88235 1.88236C3.19701 0.627452 4.84034 0 6.81233 0Z" fill="#FDFDFD"/>
</svg>
