<svg width="24" height="25" viewBox="0 0 24 25" fill="none" xmlns="http://www.w3.org/2000/svg">
<path d="M8 8.36072H6.77734C5.47772 8.36072 4.82845 8.36072 4.36621 8.62586C3.96058 8.85853 3.64877 9.22606 3.48595 9.66443C3.30053 10.1637 3.40726 10.804 3.62065 12.0844L3.62109 12.0868L4.55443 17.6868C4.71276 18.6368 4.79244 19.1119 5.02947 19.4684C5.23841 19.7826 5.5317 20.031 5.87598 20.1854C6.26653 20.3606 6.74787 20.3607 7.71094 20.3607H16.2893C17.2524 20.3607 17.7334 20.3606 18.124 20.1854C18.4682 20.031 18.7618 19.7826 18.9707 19.4684C19.2077 19.1119 19.287 18.6368 19.4453 17.6868L20.3786 12.0868L20.3796 12.0829C20.5928 10.8036 20.6995 10.1635 20.5141 9.66443C20.3513 9.22606 20.0402 8.85853 19.6346 8.62586C19.1724 8.36072 18.522 8.36072 17.2224 8.36072H16M8 8.36072H16M8 8.36072C8 6.15158 9.79086 4.36072 12 4.36072C14.2091 4.36072 16 6.15158 16 8.36072" stroke="#202020" stroke-width="1.5" stroke-linecap="round" stroke-linejoin="round"/>
</svg>
