<svg width="57" height="45" viewBox="0 0 57 45" fill="none" xmlns="http://www.w3.org/2000/svg">
<path d="M12.7437 14.6872C18.0934 18.07 21.1267 20.95 21.1267 25.2472C21.1267 30.55 16.5491 33.5215 9.82062 33.5215C6.34607 33.5215 4.14001 32.8358 2.54061 32.8358C1.93394 32.8358 1.38243 32.9272 0.886061 33.0643H0.5V25.11H1.05152C1.43758 30.9615 4.69152 33.11 9.76547 33.11C14.5637 33.11 16.7697 30.5958 16.7697 27.5329C16.7697 23.9672 14.674 21.7729 9.1588 18.2986C3.86425 14.9615 0.775758 12.1272 0.775758 7.83003C0.775758 2.75575 4.2181 2.48472e-05 10.6157 2.48472e-05C13.9799 2.48472e-05 14.5696 1.11004 16.2793 1.11004C16.886 1.11004 17.3823 1.06432 17.8787 0.927179H18.2647V8.24147H17.7132C16.9411 2.66432 15.7999 0.457167 10.7811 0.457167C6.43008 0.495969 5.13274 3.54758 5.13274 5.72718C5.13274 9.33861 7.3388 11.2586 12.7437 14.6872Z" fill="#202020"/>
<path d="M52.0879 3.44147V33.0643H51.1503L30.6339 1.56718V29.7729C30.6339 31.9672 31.7921 32.6986 35.5975 32.6986V33.0643H25.6151V32.6986C29.0896 32.6986 30.0824 31.9672 30.0824 29.7729V0.744322H25.8909V0.378607H36.0939L51.5364 24.6986V3.44147C51.5364 1.24718 49.7715 0.744322 46.2969 0.744322V0.378607H56.5V0.744322C53.0806 0.744322 52.0879 1.47575 52.0879 3.44147Z" fill="#202020"/>
<path d="M1.16572 44.6219V43.8066H3.38478C3.80746 43.8066 4.13856 43.6906 4.37808 43.4586C4.6176 43.22 4.73736 42.9349 4.73736 42.6035C4.73736 42.3781 4.68452 42.1759 4.57885 41.9969C4.47318 41.8113 4.3182 41.6655 4.1139 41.5594C3.91665 41.4534 3.68418 41.4004 3.41648 41.4004H1.16572V40.585H3.26855C3.62078 40.585 3.89904 40.4988 4.10334 40.3265C4.31468 40.1475 4.42035 39.8923 4.42035 39.5609C4.42035 39.2294 4.31115 38.9775 4.09277 38.8052C3.87439 38.6262 3.58556 38.5367 3.22628 38.5367H1.16572V37.7214H3.24741C3.72645 37.7214 4.12447 37.8042 4.44148 37.97C4.76553 38.129 5.00858 38.3412 5.1706 38.6063C5.33967 38.8715 5.42421 39.1631 5.42421 39.4813C5.42421 39.8525 5.31502 40.1773 5.09663 40.4557C4.88529 40.7342 4.57181 40.9529 4.15617 41.112L4.24071 40.8137C4.7127 40.9728 5.07902 41.2147 5.33967 41.5396C5.60737 41.8577 5.74122 42.2356 5.74122 42.6731C5.74122 43.0377 5.64612 43.3658 5.45591 43.6575C5.2657 43.9491 4.99096 44.1844 4.63169 44.3634C4.27945 44.5358 3.84621 44.6219 3.33195 44.6219H1.16572ZM0.5 44.6219V37.7214H1.4933V44.6219H0.5Z" fill="#202020"/>
<path d="M10.4651 44.6219V37.7214H11.4584V44.6219H10.4651ZM11.1414 44.6219V43.7668H15.3471V44.6219H11.1414ZM11.1414 41.4998V40.6844H14.9984V41.4998H11.1414ZM11.1414 38.5765V37.7214H15.2943V38.5765H11.1414Z" fill="#202020"/>
<path d="M19.5405 44.6219L22.5415 37.7214H23.2601L26.2506 44.6219H25.1727L22.7106 38.7853H23.0805L20.5972 44.6219H19.5405ZM20.9671 43.0609V42.2455H24.824V43.0609H20.9671Z" fill="#202020"/>
<path d="M33.4008 44.7214C32.8584 44.7214 32.3723 44.6087 31.9426 44.3833C31.5199 44.1513 31.1853 43.8364 30.9387 43.4387C30.6922 43.0343 30.5689 42.577 30.5689 42.0665V37.7214H31.5622V42.0467C31.5622 42.4112 31.6432 42.7261 31.8052 42.9913C31.9673 43.2564 32.1856 43.4619 32.4604 43.6077C32.7422 43.7536 33.0557 43.8265 33.4008 43.8265C33.7601 43.8265 34.0736 43.7536 34.3413 43.6077C34.616 43.4619 34.8309 43.2564 34.9859 42.9913C35.1479 42.7261 35.2289 42.4146 35.2289 42.0566V37.7214H36.2328V42.0765C36.2328 42.5869 36.1095 43.041 35.8629 43.4387C35.6164 43.8364 35.2818 44.1513 34.8591 44.3833C34.4364 44.6087 33.9503 44.7214 33.4008 44.7214Z" fill="#202020"/>
<path d="M43.0892 44.6219V37.9202H44.0825V44.6219H43.0892ZM40.5954 38.5765V37.7214H46.5657V38.5765H40.5954Z" fill="#202020"/>
<path d="M52.9601 41.818L50.0753 37.7214H51.2271L53.5518 41.0722H53.034L55.3693 37.7214H56.5L53.5941 41.818H52.9601ZM52.791 44.6219V41.2015H53.7843V44.6219H52.791Z" fill="#202020"/>
</svg>
